<svg xmlns="http://www.w3.org/2000/svg" version="1.1" xmlns:xlink="http://www.w3.org/1999/xlink" xmlns:svgjs="http://svgjs.dev/svgjs" width="2000" height="2250" viewBox="0 0 2000 2250"><g transform="matrix(1,0,0,1,0.0022017081398644223,0)"><svg viewBox="0 0 320 360" data-background-color="#111111" preserveAspectRatio="xMidYMid meet" height="2250" width="2000" xmlns="http://www.w3.org/2000/svg" xmlns:xlink="http://www.w3.org/1999/xlink"><g id="tight-bounds" transform="matrix(1,0,0,1,0.00010353528136874957,0)"><svg viewBox="0 0 320 360" height="360" width="320"><g><svg></svg></g><g><svg viewBox="0 0 320 360" height="360" width="320"><g><path xmlns="http://www.w3.org/2000/svg" d="M307.925 179.999l6.575-11.387c11.322-19.607 4.604-44.679-15.003-56.001l-11.387-6.575v-13.151c0-22.639-18.354-40.994-40.994-40.994h-13.151l-6.575-11.387c-11.322-19.607-36.393-26.325-56.001-15.003l-11.39 6.572-11.387-6.576c-19.607-11.318-44.679-4.6-56.001 15.007l-6.575 11.387h-13.151c-22.639 0-40.994 18.354-40.994 40.994v13.151l-11.387 6.575c-19.607 11.322-26.325 36.393-15.003 56.001l6.572 11.387-6.576 11.387c-11.318 19.607-4.6 44.679 15.007 56l11.387 6.576v13.15c0 22.639 18.354 40.994 40.994 40.994h13.151l6.575 11.387c11.322 19.607 36.393 26.325 56.001 15.003l11.387-6.571 11.387 6.575c19.607 11.322 44.679 4.604 56-15.003l6.576-11.387h13.15c22.639 0 40.994-18.354 40.994-40.994v-13.151l11.387-6.575c19.607-11.322 26.325-36.393 15.003-56.001zM297.702 115.716c8.655 4.996 14.842 13.062 17.428 22.713 2.586 9.65 1.261 19.734-3.735 28.384l-5.538 9.596-17.747-30.74v-35.494zM251.155 271.155l-57.791 33.365h-66.731l-57.791-33.365-33.365-57.791v-66.731l33.365-57.791 57.791-33.365h66.731l57.791 33.365 33.365 57.791v66.731zM284.517 220.539v31.351l-27.151 15.676zM247.566 277.366l-15.676 27.151h-31.351zM187.15 308.106l-27.151 15.676-27.151-15.676zM119.459 304.517h-31.352l-15.676-27.151zM62.632 267.566l-27.151-15.676v-31.351zM31.891 207.15l-15.675-27.151 15.675-27.151zM35.481 139.459v-31.352l27.151-15.676zM72.431 82.632l15.676-27.151h31.352zM132.848 51.891l27.151-15.675 27.151 15.675zM200.539 55.481h31.351l15.676 27.151zM257.366 92.431l27.151 15.676v31.352zM288.106 152.848l15.676 27.151-15.676 27.151zM247.112 55.481c9.992 0 19.384 3.889 26.452 10.956 7.063 7.063 10.956 16.46 10.957 26.452v11.079l-30.741-17.747-17.747-30.74zM173.18 28.606c8.655-4.996 18.735-6.322 28.385-3.735 9.65 2.586 17.716 8.777 22.712 17.428l5.538 9.596h-35.494l-30.741-17.747zM95.716 42.295c4.996-8.655 13.062-14.842 22.713-17.428 9.65-2.586 19.734-1.261 28.384 3.736l9.596 5.537-30.74 17.747h-35.494zM35.481 92.885c0-9.992 3.889-19.384 10.956-26.452 7.063-7.063 16.46-10.956 26.452-10.956h11.079l-17.747 30.74-30.74 17.747zM8.606 166.817c-4.996-8.655-6.322-18.735-3.735-28.385 2.586-9.65 8.777-17.716 17.428-22.712l9.596-5.538v35.495l-17.747 30.74zM22.295 244.281c-8.655-4.996-14.842-13.062-17.428-22.712-2.586-9.65-1.261-19.734 3.736-28.385l5.537-9.596 17.747 30.74v35.495zM72.885 304.517c-9.992 0-19.384-3.889-26.452-10.957-7.063-7.063-10.956-16.46-10.956-26.451v-11.08l30.74 17.747 17.747 30.741zM146.817 331.391c-8.655 4.996-18.735 6.322-28.385 3.735-9.65-2.586-17.716-8.777-22.712-17.428l-5.538-9.596h35.495l30.74 17.747zM224.281 317.702c-4.996 8.655-13.062 14.842-22.712 17.428-9.65 2.586-19.734 1.261-28.385-3.735l-9.596-5.538 30.74-17.747h35.495zM284.517 267.112c0 9.992-3.889 19.384-10.957 26.452-7.063 7.063-16.46 10.956-26.451 10.957h-11.08l17.747-30.741 30.741-17.747zM315.13 221.565c-2.586 9.65-8.777 17.716-17.428 22.712l-9.596 5.538v-35.494l17.747-30.741 5.538 9.596c4.996 8.658 6.326 18.739 3.739 28.389z" fill="#000000" fill-rule="nonzero" stroke="none" stroke-width="1" stroke-linecap="butt" stroke-linejoin="miter" stroke-miterlimit="10" stroke-dasharray="" stroke-dashoffset="0" font-family="none" font-weight="none" font-size="none" text-anchor="none" style="mix-blend-mode: normal" data-fill-palette-color="tertiary"></path></g><g transform="matrix(1,0,0,1,64,166.8123309897242)"><svg viewBox="0 0 192 26.37533802055165" height="26.37533802055165" width="192"><g><svg viewBox="0 0 192 26.37533802055165" height="26.37533802055165" width="192"><g><svg viewBox="0 0 192 26.37533802055165" height="26.37533802055165" width="192"><g><svg viewBox="0 0 192 26.37533802055165" height="26.37533802055165" width="192"><g id="textblocktransform"><svg viewBox="0 0 192 26.37533802055165" height="26.37533802055165" width="192" id="textblock"><g><svg viewBox="0 0 192 26.37533802055165" height="26.37533802055165" width="192"><g transform="matrix(1,0,0,1,0,0)"><svg width="192" viewBox="3.9000000953674316 -37.599998474121094 277.33001708984375 38.099998474121094" height="26.37533802055165" data-palette-color="#ffffff"><path d="M18.75-37.6L18.75-37.6Q21.05-37.6 23.23-36.8 25.4-36 27.18-34.63 28.95-33.25 30.1-31.5 31.25-29.75 31.45-27.8L31.45-27.8Q31.5-27.6 31.45-27.53 31.4-27.45 31.2-27.45L31.2-27.45 29.4-27.25Q29.25-27.2 29.18-27.3 29.1-27.4 29.05-27.6L29.05-27.6Q28.2-31.15 25.43-33.33 22.65-35.5 18.85-35.5L18.85-35.5Q12.75-35.5 9.53-31.13 6.3-26.75 6.3-18.4L6.3-18.4Q6.3-10.35 9.53-5.98 12.75-1.6 19.25-1.6L19.25-1.6Q23.15-1.6 25.7-3.48 28.25-5.35 29.75-9.3L29.75-9.3Q29.85-9.45 30.05-9.4L30.05-9.4 31.75-8.9Q31.85-8.85 31.88-8.78 31.9-8.7 31.85-8.55L31.85-8.55Q31.35-6.9 30.45-5.5 29.55-4.1 28.35-3 27.15-1.9 25.68-1.1 24.2-0.3 22.53 0.1 20.85 0.5 19.05 0.5L19.05 0.5Q14.25 0.5 10.85-1.73 7.45-3.95 5.68-8.18 3.9-12.4 3.9-18.4L3.9-18.4Q3.9-24.45 5.68-28.75 7.45-33.05 10.78-35.33 14.1-37.6 18.75-37.6L18.75-37.6ZM62.65-18.3L43.05-18.3Q42.75-18.3 42.75-18L42.75-18 42.75-0.45Q42.75 0 42.25 0L42.25 0 40.9 0Q40.65 0 40.55-0.13 40.45-0.25 40.45-0.5L40.45-0.5 40.45-36.6Q40.45-37.1 40.9-37.1L40.9-37.1 42.3-37.1Q42.75-37.1 42.75-36.6L42.75-36.6 42.75-20.75Q42.75-20.3 43.2-20.3L43.2-20.3 62.6-20.3Q63-20.3 63-20.7L63-20.7 63-36.65Q63-37.1 63.4-37.1L63.4-37.1 64.85-37.1Q65.3-37.1 65.3-36.6L65.3-36.6 65.3-0.5Q65.3-0.25 65.2-0.13 65.1 0 64.85 0L64.85 0 63.5 0Q63 0 63-0.45L63-0.45 63-17.95Q63-18.3 62.65-18.3L62.65-18.3ZM74 0L74 0Q73.8 0 73.7-0.13 73.59-0.25 73.65-0.45L73.65-0.45 86.9-36.55Q87-36.85 87.17-36.98 87.34-37.1 87.7-37.1L87.7-37.1 89.34-37.1Q90.09-37.1 90.25-36.6L90.25-36.6 103.34-0.5Q103.45-0.3 103.32-0.15 103.2 0 102.95 0L102.95 0 101.75 0Q101.25 0 101.09-0.4L101.09-0.4 97.05-11.55Q97-11.75 96.9-11.83 96.8-11.9 96.55-11.9L96.55-11.9 80.45-11.9Q80.09-11.9 79.95-11.55L79.95-11.55 75.8-0.35Q75.75-0.15 75.62-0.08 75.5 0 75.25 0L75.25 0 74 0ZM81.15-13.9L95.7-13.9Q96.2-13.9 96.05-14.4L96.05-14.4 88.9-33.9Q88.7-34.4 88.52-34.4 88.34-34.4 88.15-33.85L88.15-33.85 80.9-14.3Q80.75-13.9 81.15-13.9L81.15-13.9ZM136.54-26.75L136.54-26.75Q136.54-23.05 134.87-20.75 133.19-18.45 130.27-17.4 127.34-16.35 123.54-16.35L123.54-16.35 114.39-16.35Q113.99-16.35 113.99-15.9L113.99-15.9 113.99-0.45Q113.99 0 113.59 0L113.59 0 112.09 0Q111.89 0 111.79-0.1 111.69-0.2 111.69-0.4L111.69-0.4 111.69-36.6Q111.69-37.1 112.14-37.1L112.14-37.1 123.24-37.1Q127.14-37.1 130.14-36.08 133.14-35.05 134.84-32.77 136.54-30.5 136.54-26.75L136.54-26.75ZM134.14-26.9L134.14-26.9Q134.14-30 132.82-31.8 131.49-33.6 129.04-34.35 126.59-35.1 123.19-35.1L123.19-35.1 114.44-35.1Q113.99-35.1 113.99-34.7L113.99-34.7 113.99-18.85Q113.99-18.35 114.34-18.35L114.34-18.35 123.54-18.35Q128.34-18.35 131.24-20.33 134.14-22.3 134.14-26.9L134.14-26.9ZM138.69 0L138.69 0Q138.49 0 138.39-0.13 138.29-0.25 138.34-0.45L138.34-0.45 151.59-36.55Q151.69-36.85 151.87-36.98 152.04-37.1 152.39-37.1L152.39-37.1 154.04-37.1Q154.79-37.1 154.94-36.6L154.94-36.6 168.04-0.5Q168.14-0.3 168.01-0.15 167.89 0 167.64 0L167.64 0 166.44 0Q165.94 0 165.79-0.4L165.79-0.4 161.74-11.55Q161.69-11.75 161.59-11.83 161.49-11.9 161.24-11.9L161.24-11.9 145.14-11.9Q144.79-11.9 144.64-11.55L144.64-11.55 140.49-0.35Q140.44-0.15 140.31-0.08 140.19 0 139.94 0L139.94 0 138.69 0ZM145.84-13.9L160.39-13.9Q160.89-13.9 160.74-14.4L160.74-14.4 153.59-33.9Q153.39-34.4 153.22-34.4 153.04-34.4 152.84-33.85L152.84-33.85 145.59-14.3Q145.44-13.9 145.84-13.9L145.84-13.9ZM168.04-35.45L168.04-36.75Q168.04-36.95 168.11-37.02 168.19-37.1 168.39-37.1L168.39-37.1 194.14-37.1Q194.34-37.1 194.41-37.02 194.49-36.95 194.49-36.75L194.49-36.75 194.49-35.45Q194.49-35.1 194.09-35.1L194.09-35.1 183.44-35.1Q182.94-35.1 182.94-34.65L182.94-34.65 182.94-0.5Q182.94 0 182.49 0L182.49 0 181.14 0Q180.64 0 180.64-0.5L180.64-0.5 180.64-34.65Q180.64-35.1 180.14-35.1L180.14-35.1 168.44-35.1Q168.04-35.1 168.04-35.45L168.04-35.45ZM224.44-37.1L224.44-37.1Q224.69-37.1 224.79-36.95 224.89-36.8 224.74-36.55L224.74-36.55 212.78-16.3Q212.64-16.1 212.61-15.9 212.59-15.7 212.59-15.3L212.59-15.3 212.59-0.65Q212.59 0 211.84 0L211.84 0 210.89 0Q210.53 0 210.41-0.15 210.28-0.3 210.28-0.55L210.28-0.55 210.28-14.75Q210.28-15.15 210.24-15.33 210.19-15.5 210.03-15.75L210.03-15.75 197.84-36.5Q197.69-36.75 197.78-36.93 197.89-37.1 198.24-37.1L198.24-37.1 199.39-37.1Q199.74-37.1 199.89-37 200.03-36.9 200.19-36.65L200.19-36.65 210.69-18.8Q211.03-18.2 211.31-18.2 211.59-18.2 211.89-18.7L211.89-18.7 222.34-36.65Q222.54-36.95 222.66-37.02 222.79-37.1 223.14-37.1L223.14-37.1 224.44-37.1ZM241.23 0L241.23 0Q241.03 0 240.93-0.13 240.83-0.25 240.88-0.45L240.88-0.45 254.13-36.55Q254.23-36.85 254.41-36.98 254.58-37.1 254.93-37.1L254.93-37.1 256.58-37.1Q257.33-37.1 257.48-36.6L257.48-36.6 270.58-0.5Q270.68-0.3 270.56-0.15 270.43 0 270.18 0L270.18 0 268.98 0Q268.48 0 268.33-0.4L268.33-0.4 264.28-11.55Q264.23-11.75 264.13-11.83 264.03-11.9 263.78-11.9L263.78-11.9 247.68-11.9Q247.33-11.9 247.18-11.55L247.18-11.55 243.03-0.35Q242.98-0.15 242.86-0.08 242.73 0 242.48 0L242.48 0 241.23 0ZM248.38-13.9L262.93-13.9Q263.43-13.9 263.28-14.4L263.28-14.4 256.13-33.9Q255.93-34.4 255.76-34.4 255.58-34.4 255.38-33.85L255.38-33.85 248.13-14.3Q247.98-13.9 248.38-13.9L248.38-13.9ZM279.38-37.1L280.78-37.1Q281.23-37.1 281.23-36.6L281.23-36.6 281.23-0.6Q281.23-0.25 281.13-0.13 281.03 0 280.63 0L280.63 0 279.48 0Q279.13 0 279.03-0.1 278.93-0.2 278.93-0.5L278.93-0.5 278.93-36.6Q278.93-37.1 279.38-37.1L279.38-37.1Z" opacity="1" transform="matrix(1,0,0,1,0,0)" fill="#000000" class="wordmark-text-0" data-fill-palette-color="primary" id="text-0"></path></svg></g></svg></g></svg></g></svg></g></svg></g></svg></g></svg></g></svg></g><defs></defs></svg><rect width="320" height="360" fill="none" stroke="none" visibility="hidden"></rect></g></svg></g></svg>